<?xml version="1.0" encoding="UTF-8"?>
<!DOCTYPE svg PUBLIC "-//W3C//DTD SVG 1.1//EN" "http://www.w3.org/Graphics/SVG/1.1/DTD/svg11.dtd">
<!-- Creator: CorelDRAW 2019 (64-Bit) -->
<svg xmlns="http://www.w3.org/2000/svg" xml:space="preserve" width="369px" height="369px" version="1.1" style="shape-rendering:geometricPrecision; text-rendering:geometricPrecision; image-rendering:optimizeQuality; fill-rule:evenodd; clip-rule:evenodd"
viewBox="0 0 403 403"
 xmlns:xlink="http://www.w3.org/1999/xlink"
 xmlns:xodm="http://www.corel.com/coreldraw/odm/2003">
 <defs>
  <style type="text/css">
   <![CDATA[
    .fil0 {fill:none}
    .fil1 {fill:black}
   ]]>
  </style>
 </defs>
 <g id="Layer_x0020_1">
  <metadata id="CorelCorpID_0Corel-Layer"/>
  <rect class="fil0" width="403" height="403"/>
  <g id="_2220984290016">
   <path class="fil1" d="M79 179l186 0c2,0 1,5 6,5 5,0 5,-2 6,-5l49 0 0 33c-27,5 -36,43 -10,59 3,2 8,3 10,4l0 33 -49 0c-2,-3 -2,-5 -6,-5 -5,0 -4,2 -6,5 -15,1 -31,0 -46,0 -16,0 -31,0 -47,0 -6,0 -90,1 -93,0l0 -33c4,-2 6,-2 10,-4 6,-4 10,-9 13,-15 8,-19 -5,-41 -23,-44l0 -33zm-3 -9c-9,3 -6,13 -6,23 0,8 -2,22 3,27 4,4 10,1 18,10 10,13 4,32 -12,36 -11,3 -9,7 -9,21 0,22 -3,32 12,32l219 0c5,0 25,1 29,0 8,-2 6,-14 6,-23 0,-5 0,-10 0,-15 0,-17 -4,-12 -13,-16 -4,-2 -6,-4 -8,-7 -4,-6 -7,-14 -3,-23 3,-6 8,-11 16,-13 10,-2 8,-9 8,-21 0,-6 1,-24 -2,-27 -4,-5 -16,-4 -26,-4l-175 0c-9,0 -54,-1 -58,1z"/>
   <path class="fil1" d="M213 104c3,1 4,4 8,1 3,-2 4,-4 2,-7 2,-2 7,-5 10,-7 5,-3 29,-19 31,-20 3,5 6,9 9,14 2,3 8,12 9,14 -5,5 -8,10 -9,18 -2,15 6,30 20,35 10,4 14,2 24,0 1,1 3,5 4,6 5,7 11,1 9,-3 -1,-3 -6,-10 -8,-11 -3,-1 -5,-2 -8,0 -23,9 -42,-20 -23,-38 5,-4 2,-10 -1,-14 -5,-8 -10,-16 -15,-24 -2,-3 -2,-4 -5,-5 -7,-3 -12,2 -20,7l-49 31c-8,5 -16,10 -24,15 -15,10 -33,21 -48,31 -4,3 -8,5 -12,8 -2,1 -5,2 -5,5 -1,3 2,6 5,6 3,0 21,-12 25,-15 15,-10 33,-21 48,-31l18 -12c2,-1 5,-3 6,-4z"/>
   <path class="fil1" d="M56 204c2,-1 4,-3 6,-4 7,-5 1,-12 -5,-9 -3,2 -4,3 -7,4 -5,3 -8,8 -3,14l17 27c4,6 12,1 8,-6 -2,-3 -16,-25 -17,-27z"/>
   <path class="fil1" d="M270 277c-5,2 -4,6 -4,12 0,5 3,8 8,7 5,-1 4,-7 4,-12 0,-5 -3,-9 -8,-7z"/>
   <path class="fil1" d="M270 192c-5,1 -4,7 -4,11 0,5 2,9 8,7 5,-2 4,-8 4,-11 0,-5 -2,-9 -8,-7z"/>
   <path class="fil1" d="M270 220c-5,2 -4,6 -4,12 0,5 2,8 8,7 5,-1 4,-7 4,-12 0,-5 -3,-9 -8,-7z"/>
   <path class="fil1" d="M270 249c-2,1 -3,1 -4,4 -1,3 -1,12 2,14 1,1 4,2 6,1 4,-1 4,-7 4,-12 0,-5 -3,-9 -8,-7z"/>
   <path class="fil1" d="M243 137c-2,1 -4,2 -4,4 -1,3 1,5 2,6 2,3 4,9 9,7 6,-2 5,-7 2,-11 -2,-3 -4,-9 -9,-7z"/>
   <path class="fil1" d="M228 113c-6,2 -5,6 -3,10 2,3 4,9 9,7 5,-2 5,-6 3,-10 -2,-3 -4,-9 -9,-7z"/>
  </g>
 </g>
</svg>
